<svg xmlns="http://www.w3.org/2000/svg" xmlns:xlink="http://www.w3.org/1999/xlink" version="1.1" x="0px" y="0px" width="424.2px" height="123.1px" viewBox="0 0 424.2 123.1" enable-background="new 0 0 424.2 123.1" xml:space="preserve"><g><g><path fill="#FFFFFF" d="M114.2 22.7c-21.4 0-38.9 17.2-38.9 38.8c0 21.2 17 39 38.5 39c21.7 0 38.8-17.7 38.8-39.2 C152.6 40.3 135.5 22.7 114.2 22.7z M113.8 83.9c-12.6 0-21.9-10.5-21.9-22.6c0-12.3 10.2-22.1 22.3-22.1 c12.3 0 21.8 10.5 21.8 22.5C136 74 126.1 83.9 113.8 83.9z"/><path fill="#FFFFFF" d="M197.1 22.7c-21.4 0-38.9 17.2-38.9 38.8c0 21.2 17 39 38.5 39c21.7 0 38.8-17.7 38.8-39.2 C235.5 40.3 218.4 22.7 197.1 22.7z M196.7 83.9c-12.6 0-21.9-10.5-21.9-22.6c0-12.3 10.2-22.1 22.3-22.1 c12.3 0 21.8 10.5 21.8 22.5C218.9 74 209 83.9 196.7 83.9z"/><path fill="#FFFFFF" d="M332.8 0c-4.8 0-8.6 3.9-8.6 8.6c0 0 0 0 0 0h0v83.2c0 4.8 3.9 8.6 8.6 8.6c4.8 0 8.6-3.9 8.6-8.6l0 0h0 V8.6C341.5 3.9 337.6 0 332.8 0z"/><path fill="#FFFFFF" d="M280.1 22.7c-8.1 0-15.6 2.5-21.7 6.7l0 0c-0.9-3.8-4.4-6.7-8.5-6.7c-4.8 0-8.5 3.9-8.5 8.6l0 83.2 c0 4.8 3.7 8.6 8.5 8.6c4.8 0 8.5-3.9 8.5-8.6l0 0l0-20.7c6 4.1 13.5 6.7 21.3 6.7c21.4 0 38.9-17.2 38.9-38.8 C318.5 40.4 301.6 22.7 280.1 22.7z M280.1 83.9c-12.3 0-22.2-9.9-22.2-22.2c0-12 9.5-22.5 21.8-22.5c12.1 0 22.3 9.8 22.3 22.1 C302 73.4 292.6 83.9 280.1 83.9z"/><path fill="#FFFFFF" d="M415.7 22.7c-4.1 0-7.6 2.9-8.5 6.7c-6.2-4.2-13.6-6.7-21.7-6.7c-21.5 0-38.5 17.8-38.5 39 c0 21.5 17.5 38.8 38.9 38.8c7.8 0 15.3-2.6 21.3-6.7c0.9 3.8 4.4 6.7 8.5 6.7c4.8 0 8.5-3.9 8.5-8.6V31.3 C424.2 26.5 420.5 22.7 415.7 22.7z M385.5 83.9c-12.6 0-21.9-10.5-21.9-22.6c0-12.3 10.2-22.1 22.3-22.1 c12.3 0 21.8 10.5 21.8 22.5C407.7 74 397.8 83.9 385.5 83.9z"/><path fill="#FFFFFF" d="M63.2 65.3c-4.8 0-8.6 3.9-8.6 8.6l0 8.8H22.9l44.4-65c1.2-1.8 1.9-3.9 1.9-6.2c0-6-4.8-10.8-10.8-10.9 l-49.8 0v0h0C3.9 0.6 0 4.4 0 9.2c0 4.8 3.9 8.6 8.6 8.6h37.8L2.1 82.5c0 0-2.1 2.9-2.1 6.4c0 6 4.9 10.9 10.9 10.9h60.9l0-26 C71.8 69.1 68 65.3 63.2 65.3z"/></g></g></svg>
